<?xml version="1.0" standalone="no"?>
<!DOCTYPE svg PUBLIC "-//W3C//DTD SVG 20010904//EN"
 "http://www.w3.org/TR/2001/REC-SVG-20010904/DTD/svg10.dtd">
<svg version="1.0" xmlns="http://www.w3.org/2000/svg"
 width="337.000000pt" height="337.000000pt" viewBox="0 0 337.000000 337.000000"
 preserveAspectRatio="xMidYMid meet">

<g transform="translate(0.000000,337.000000) scale(0.100000,-0.100000)"
fill="#000000" stroke="none">
<path d="M1447 2829 c-288 -97 -416 -222 -512 -500 -44 -127 -56 -187 -59
-306 -2 -73 0 -90 11 -86 7 3 13 4 13 2 0 -26 23 -132 34 -159 29 -74 57 -171
51 -180 -3 -6 1 -10 9 -10 9 0 16 7 16 15 0 17 16 20 24 6 4 -5 7 -21 8 -35 1
-15 6 -25 12 -23 5 2 8 48 7 102 -1 119 8 164 34 179 11 6 22 13 25 16 20 20
70 49 70 40 0 -5 -5 -10 -12 -10 -9 0 -9 -3 0 -12 8 -8 8 -17 0 -31 -10 -19
-8 -20 33 -13 136 20 150 20 156 -2 4 -16 16 -23 49 -28 24 -3 52 -3 61 2 10
4 21 8 25 8 13 2 23 19 39 64 12 35 21 48 38 50 27 4 55 -19 71 -58 l12 -29
18 22 c18 21 18 23 -5 47 -45 49 3 86 139 110 33 5 75 10 94 10 30 0 33 2 22
15 -7 9 -10 18 -7 22 4 3 -5 12 -20 20 -31 16 -108 11 -170 -11 -37 -13 -42
-13 -47 1 -5 13 -11 11 -39 -9 -56 -43 -64 -41 -14 4 26 24 47 49 47 56 0 7 7
12 16 10 11 -2 21 10 31 37 20 58 44 177 39 192 -10 25 5 40 40 41 24 1 38 -4
47 -18 6 -11 19 -20 27 -20 8 0 23 -17 32 -37 l17 -38 0 37 c1 43 15 57 30 29
6 -11 17 -26 23 -33 40 -43 49 -59 53 -104 7 -62 32 -151 45 -159 6 -3 10 -15
10 -27 0 -18 -4 -20 -47 -14 -46 6 -47 6 -22 -9 18 -10 29 -26 33 -50 4 -20
11 -33 17 -29 5 3 27 3 48 -1 37 -6 39 -9 55 -63 9 -32 19 -80 22 -107 7 -50
19 -75 35 -75 5 0 9 11 9 25 0 37 35 33 52 -5 7 -16 16 -30 19 -30 15 0 29 57
39 157 6 59 15 149 20 200 6 50 10 131 10 179 0 78 -3 93 -32 151 -18 36 -56
90 -83 121 -61 69 -83 102 -89 136 -5 29 -54 86 -73 86 -7 0 -27 18 -44 40
-18 22 -36 40 -40 40 -5 0 -24 11 -44 24 -50 34 -150 66 -207 66 -42 0 -50 -3
-60 -25 -13 -30 -43 -32 -66 -6 -31 35 -69 33 -195 -10z m163 15 c0 -2 -7 -4
-15 -4 -8 0 -15 4 -15 10 0 5 7 7 15 4 8 -4 15 -8 15 -10z m95 -656 c-3 -12
-11 -29 -20 -37 -13 -14 -15 -13 -15 8 0 29 18 63 30 56 5 -3 7 -15 5 -27z
m-211 -33 c-6 -25 9 -35 22 -14 4 7 17 -1 35 -22 l28 -33 -31 -13 c-18 -8 -38
-11 -45 -9 -7 3 -13 -1 -13 -9 0 -23 -19 -27 -70 -15 -43 10 -49 15 -48 35 1
14 12 28 25 34 13 6 23 18 23 27 0 10 5 14 15 10 9 -3 19 3 25 14 16 30 42 26
34 -5z m163 -37 c-3 -8 -6 -5 -6 6 -1 11 2 17 5 13 3 -3 4 -12 1 -19z m-43
-133 c-4 -8 -10 -15 -15 -15 -5 0 -9 7 -9 15 0 8 7 15 15 15 9 0 12 -6 9 -15z
m-221 -22 c-15 -3 -23 -12 -23 -24 0 -13 -7 -19 -24 -19 -14 0 -27 -4 -30 -9
-3 -5 -20 -14 -36 -20 -18 -6 -28 -6 -25 -1 4 6 14 10 23 10 12 0 9 4 -8 13
-14 7 -26 9 -28 5 -7 -15 -20 -8 -18 10 2 10 12 17 26 17 13 0 25 6 28 13 2 8
25 12 70 11 37 -1 57 -4 45 -6z m92 -23 c3 -6 -1 -7 -9 -4 -18 7 -21 14 -7 14
6 0 13 -4 16 -10z"/>
<path d="M1990 2844 c0 -6 14 -23 30 -39 17 -16 30 -24 30 -19 0 6 -13 23 -30
39 -16 16 -30 24 -30 19z"/>
<path d="M1731 1957 c-6 -6 -11 -19 -11 -28 0 -10 -5 -19 -10 -21 -16 -5 8
-66 30 -78 23 -12 89 8 69 21 -36 22 69 50 157 42 73 -7 93 10 31 25 -80 20
-149 32 -178 32 -16 0 -29 4 -29 9 0 12 -46 11 -59 -2z"/>
<path d="M1662 1584 c-12 -8 -22 -21 -22 -29 0 -21 22 -30 34 -13 6 8 21 18
34 22 26 9 29 21 6 30 -22 9 -27 8 -52 -10z"/>
<path d="M1474 1564 c-13 -19 -14 -28 -6 -36 7 -7 15 -8 19 -4 4 4 1 11 -7 16
-11 7 -6 8 15 6 17 -2 39 0 49 3 18 7 18 8 -5 24 -32 23 -46 21 -65 -9z"/>
<path d="M1710 1550 c0 -5 7 -10 15 -10 8 0 15 5 15 10 0 6 -7 10 -15 10 -8 0
-15 -4 -15 -10z"/>
<path d="M1558 1392 c-10 -2 -18 -7 -18 -11 0 -5 -21 -7 -47 -6 -50 2 -153
-34 -153 -54 0 -5 14 -18 30 -28 17 -9 30 -20 30 -23 0 -3 8 -6 18 -7 9 0 44
-6 77 -12 70 -13 135 -14 135 -3 0 4 -15 8 -32 8 -88 2 -96 4 -101 25 -3 12
-10 18 -15 15 -11 -7 -25 21 -17 34 6 10 63 20 143 26 90 7 92 7 92 25 0 13
-11 16 -62 16 -35 -1 -71 -2 -80 -5z"/>
<path d="M1775 1390 l-30 -7 28 -11 c32 -13 36 -42 7 -49 -24 -6 -27 -23 -4
-23 21 0 119 47 134 65 9 11 4 16 -27 24 -42 12 -63 12 -108 1z"/>
<path d="M1718 1373 c7 -3 16 -2 19 1 4 3 -2 6 -13 5 -11 0 -14 -3 -6 -6z"/>
<path d="M2110 959 c0 -100 -3 -118 -31 -187 -17 -42 -36 -84 -44 -92 -7 -8
-20 -31 -28 -50 -8 -20 -20 -42 -28 -50 -8 -9 -26 -33 -41 -54 -32 -47 -26
-81 16 -81 14 1 26 -2 26 -6 0 -13 -113 -79 -155 -91 -47 -13 -223 -17 -277
-5 -54 11 -69 30 -57 67 13 37 4 141 -13 152 -10 6 -9 8 3 8 9 0 33 -16 53
-35 39 -37 72 -44 106 -23 15 10 22 10 32 0 6 -6 22 -12 35 -12 19 0 23 5 23
30 0 34 -22 49 -44 31 -10 -8 -16 -9 -21 -1 -3 5 -14 10 -23 10 -9 0 -46 34
-82 75 -36 41 -71 74 -78 75 -21 0 -25 -27 -7 -53 15 -23 14 -25 -2 -32 -16
-6 -16 -8 5 -16 12 -4 22 -13 22 -19 0 -17 -30 -11 -53 11 -20 19 -21 21 -4
30 9 6 17 17 17 24 0 18 -16 20 -24 3 -3 -7 -3 2 0 21 5 29 4 33 -11 28 -18
-7 -45 13 -45 35 -1 16 -24 48 -36 48 -5 0 -14 9 -19 19 -6 10 -22 38 -37 62
-16 28 -28 64 -31 97 -3 29 -8 56 -12 60 -11 11 -42 -34 -60 -86 -29 -83 -39
-96 -95 -125 -65 -33 -433 -210 -575 -277 -184 -86 -242 -134 -312 -260 -30
-53 -48 -94 -98 -227 l-24 -63 1600 0 1600 0 -7 38 c-13 73 -44 155 -102 271
-29 58 -49 83 -94 117 -71 55 -179 119 -283 168 -44 21 -106 54 -139 73 -32
20 -118 65 -190 100 -72 35 -144 71 -161 80 -16 9 -40 21 -51 27 -15 7 -27 29
-38 67 -15 56 -69 129 -95 129 -7 0 -11 -35 -11 -111z"/>
<path d="M1310 1020 c13 -19 37 -48 52 -65 15 -16 28 -34 28 -39 0 -5 11 -19
25 -32 13 -12 27 -34 31 -48 7 -30 12 -32 28 -10 11 14 21 15 92 3 111 -17
147 -14 191 15 21 15 42 26 48 26 12 0 95 88 95 101 0 6 4 8 9 4 11 -6 26 13
17 22 -6 6 -44 -17 -83 -50 -59 -52 -236 -84 -316 -58 -30 10 -112 65 -187
124 -55 43 -55 43 -30 7z"/>
<path d="M1420 746 c0 -2 7 -7 16 -10 8 -3 12 -2 9 4 -6 10 -25 14 -25 6z"/>
</g>
</svg>
